<svg width="88" height="88" xmlns="http://www.w3.org/2000/svg" xmlns:xlink="http://www.w3.org/1999/xlink" xml:space="preserve" overflow="hidden"><g transform="translate(-194 -276)"><g><g><g><g><path d="M276.826 310.611C276.799 310.203 276.502 309.864 276.101 309.784L266.52 307.832C266.223 307.768 265.913 307.861 265.699 308.078L264.496 309.282 246.871 291.836C244.683 289.341 240.935 288.968 238.298 290.984L219.181 306.022C218.976 306.013 218.771 306 218.562 306 209.558 306.01 202.26 313.308 202.25 322.312L202.25 341.434C200.142 341.868 198.628 343.723 198.625 345.875L198.625 350.406 238.5 350.406 238.5 345.875C238.494 343.706 236.953 341.846 234.824 341.434L234.875 322.312C234.872 318.669 233.638 315.132 231.375 312.277L239.972 301.991C241.331 302.492 242.823 302.503 244.19 302.022L258.086 315.691 256.766 317.01C256.553 317.223 256.459 317.529 256.517 317.826L258.37 327.507C258.448 327.912 258.789 328.213 259.201 328.24L268.812 328.881 268.874 328.881C269.374 328.897 269.793 328.505 269.81 328.004 269.826 327.504 269.433 327.085 268.933 327.069L260.019 326.475 258.388 317.952 266.635 309.705 275.063 311.421 275.656 320.343C275.696 320.839 276.123 321.214 276.621 321.188 277.12 321.157 277.5 320.727 277.469 320.227 277.469 320.226 277.469 320.224 277.469 320.223ZM236.688 345.875 236.688 348.594 200.438 348.594 200.438 345.875C200.438 344.373 201.655 343.156 203.156 343.156L233.969 343.156C235.47 343.156 236.688 344.373 236.688 345.875ZM233.062 322.312 233.012 341.344 204.062 341.344 204.062 322.312C204.074 315.015 209.503 308.862 216.742 307.942L213.108 310.803C209.915 313.477 209.495 318.233 212.169 321.426 213.602 323.137 215.718 324.125 217.949 324.125 218.059 324.125 218.169 324.125 218.28 324.117 220.393 324.021 222.369 323.044 223.728 321.423L230.191 313.691C232.054 316.18 233.061 319.204 233.062 322.312ZM222.34 320.26C221.313 321.499 219.808 322.243 218.2 322.306 216.592 322.395 215.023 321.785 213.897 320.634 211.659 318.399 211.657 314.772 213.893 312.534 214.007 312.42 214.126 312.31 214.25 312.206L235.818 295.227C235.828 295.22 235.835 295.227 235.833 295.236 235.529 297.505 236.49 299.758 238.34 301.108ZM237.632 296.622C237.306 294.141 239.053 291.865 241.534 291.539 244.015 291.213 246.291 292.96 246.617 295.441 246.943 297.923 245.196 300.198 242.715 300.524 242.323 300.576 241.926 300.576 241.534 300.524 239.501 300.255 237.901 298.655 237.632 296.622ZM248.481 295.973 263.184 310.531 259.338 314.378 245.874 301.137C247.478 299.965 248.438 298.108 248.469 296.122 248.469 296.095 248.469 296.031 248.469 295.982 248.469 295.966 248.469 295.964 248.481 295.973Z" stroke="#FFFFFF" stroke-width="0.556975" stroke-linecap="butt" stroke-linejoin="miter" stroke-miterlimit="4" stroke-opacity="1" fill="#000000" fill-rule="nonzero" fill-opacity="1"/><path d="M217.326 313.383C216.153 314.32 215.962 316.031 216.899 317.204 217.836 318.377 219.547 318.569 220.72 317.632 220.799 317.569 220.874 317.502 220.945 317.431L220.945 317.431C222.009 316.371 222.013 314.65 220.954 313.586 219.974 312.601 218.409 312.514 217.325 313.383ZM219.664 316.15C219.306 316.493 218.741 316.493 218.383 316.15 218.029 315.796 218.029 315.222 218.383 314.868 218.737 314.514 219.311 314.514 219.665 314.868 220.018 315.222 220.019 315.796 219.665 316.15 219.665 316.15 219.665 316.15 219.665 316.15Z" stroke="#FFFFFF" stroke-width="0.556975" stroke-linecap="butt" stroke-linejoin="miter" stroke-miterlimit="4" stroke-opacity="1" fill="#000000" fill-rule="nonzero" fill-opacity="1"/><path d="M242.569 293.808C241.342 293.564 240.149 294.36 239.904 295.587 239.66 296.814 240.456 298.007 241.683 298.252 242.91 298.497 244.103 297.7 244.348 296.473 244.406 296.181 244.406 295.88 244.348 295.587 244.169 294.689 243.467 293.987 242.569 293.808ZM242.125 296.484C241.875 296.484 241.672 296.281 241.672 296.031 241.672 295.781 241.875 295.578 242.125 295.578 242.375 295.578 242.578 295.781 242.578 296.031 242.578 296.281 242.375 296.484 242.125 296.484Z" stroke="#FFFFFF" stroke-width="0.556975" stroke-linecap="butt" stroke-linejoin="miter" stroke-miterlimit="4" stroke-opacity="1" fill="#000000" fill-rule="nonzero" fill-opacity="1"/></g></g></g></g></g></svg>